<svg xmlns="http://www.w3.org/2000/svg" viewBox="0 0 32 32">
  <circle cx="16" cy="16" r="16" fill="#111827"/>
  <!-- Fork -->
  <rect x="8" y="7" width="2" height="7" rx="1" fill="#ffffff"/>
  <rect x="11" y="7" width="2" height="7" rx="1" fill="#ffffff"/>
  <rect x="14" y="7" width="2" height="7" rx="1" fill="#ffffff"/>
  <path d="M8 13 Q8 17 11 17 L11 17 L11 25 Q11 26 12 26 Q13 26 13 25 L13 17 Q16 17 16 13" fill="#ffffff"/>
  <!-- Knife -->
  <path d="M20 7 Q24 7 24 12 L24 14 Q24 16 22 16 L22 25 Q22 26 21 26 Q20 26 20 25 L20 7 Z" fill="#ffffff"/>
</svg>
